# SSTK version 0.8.0
# 4
mtllib original-4.mtl
o #ID43
v 0.747378 0.395877 0.497091
v 0.747378 0.279428 -0.534309
v 0.747378 0.395877 -0.534309
v 0.747378 0.279428 0.497091
v 0.747378 0.279428 0.497091
v 0.747378 0.395877 0.497091
v 0.747378 0.279428 -0.534309
v 0.747378 0.395877 -0.534309
v 0.747378 0.279428 0.497091
v 0.714107 0.279428 0.463820
v 0.747378 0.279428 -0.534309
v -0.816359 0.279428 0.497091
v -0.783088 0.279428 0.463820
v -0.783088 0.279428 -0.501038
v 0.714107 0.279428 -0.501038
v -0.816359 0.279428 -0.534309
v -0.816359 0.279428 0.497091
v -0.783088 0.279428 -0.501038
v -0.816359 0.279428 -0.534309
v 0.714107 0.279428 -0.501038
v 0.714107 0.279428 0.463820
v 0.747378 0.279428 -0.534309
v -0.783088 0.279428 0.463820
v 0.747378 0.279428 0.497091
v -0.816359 0.279428 -0.534309
v 0.747378 0.395877 -0.534309
v 0.747378 0.279428 -0.534309
v -0.816359 0.395877 -0.534309
v -0.816359 0.395877 -0.534309
v -0.816359 0.279428 -0.534309
v 0.747378 0.395877 -0.534309
v 0.747378 0.279428 -0.534309
v 0.747378 0.395877 -0.534309
v 0.714107 0.395877 -0.501038
v 0.714107 0.395877 0.463820
v -0.816359 0.395877 -0.534309
v -0.783088 0.395877 -0.501038
v -0.816359 0.395877 0.497091
v 0.747378 0.395877 0.497091
v -0.783088 0.395877 0.463820
v -0.783088 0.395877 -0.501038
v -0.783088 0.395877 0.463820
v -0.816359 0.395877 0.497091
v 0.714107 0.395877 0.463820
v 0.747378 0.395877 -0.534309
v 0.747378 0.395877 0.497091
v -0.816359 0.395877 -0.534309
v 0.714107 0.395877 -0.501038
v 0.747378 0.395877 0.497091
v -0.816359 0.279428 0.497091
v 0.747378 0.279428 0.497091
v -0.816359 0.395877 0.497091
v -0.816359 0.395877 0.497091
v 0.747378 0.395877 0.497091
v -0.816359 0.279428 0.497091
v 0.747378 0.279428 0.497091
v -0.816359 0.279428 -0.534309
v -0.816359 0.395877 0.497091
v -0.816359 0.395877 -0.534309
v -0.816359 0.279428 0.497091
v -0.816359 0.279428 0.497091
v -0.816359 0.279428 -0.534309
v -0.816359 0.395877 0.497091
v -0.816359 0.395877 -0.534309
vn 1 0 0
vn -1 0 0
vn 0 -1 0
vn 0 1 0
vn 0 0 -1
vn 0 0 1
usemtl material_0_0
f 1//1 2//1 3//1
f 2//1 1//1 4//1
f 5//2 6//2 7//2
f 8//2 7//2 6//2
f 9//3 10//3 11//3
f 10//3 9//3 12//3
f 10//3 12//3 13//3
f 13//3 12//3 14//3
f 11//3 15//3 16//3
f 15//3 11//3 10//3
f 16//3 15//3 14//3
f 16//3 14//3 12//3
f 17//4 18//4 19//4
f 18//4 20//4 19//4
f 21//4 22//4 20//4
f 19//4 20//4 22//4
f 18//4 17//4 23//4
f 23//4 17//4 21//4
f 17//4 24//4 21//4
f 22//4 21//4 24//4
f 25//5 26//5 27//5
f 26//5 25//5 28//5
f 29//6 30//6 31//6
f 32//6 31//6 30//6
f 33//4 34//4 35//4
f 34//4 33//4 36//4
f 34//4 36//4 37//4
f 37//4 36//4 38//4
f 39//4 35//4 38//4
f 35//4 39//4 33//4
f 38//4 35//4 40//4
f 38//4 40//4 37//4
f 41//3 42//3 43//3
f 42//3 44//3 43//3
f 45//3 46//3 44//3
f 43//3 44//3 46//3
f 43//3 47//3 41//3
f 41//3 47//3 48//3
f 47//3 45//3 48//3
f 44//3 48//3 45//3
f 49//6 50//6 51//6
f 50//6 49//6 52//6
f 53//5 54//5 55//5
f 56//5 55//5 54//5
f 57//2 58//2 59//2
f 58//2 57//2 60//2
f 61//1 62//1 63//1
f 64//1 63//1 62//1
